<?xml version="1.0" encoding="UTF-8"?>
<svg width="256px" height="256px" viewBox="0 0 256 256" version="1.1" xmlns="http://www.w3.org/2000/svg" xmlns:xlink="http://www.w3.org/1999/xlink" preserveAspectRatio="xMidYMid">
    <g>
        <path d="M128,0 C57.308,0 0,57.309 0,128 C0,198.693 57.308,256 128,256 C198.693,256 256,198.693 256,128 C256,57.309 198.693,0 128,0" fill="#FFBF00"></path>
        <path d="M152.563,45.576 L181.572,87.43 C182.501,88.859 182.211,90.785 180.864,91.822 L95.738,162.371 C95.249,162.78 94.655,163.025 94.038,163.113 C92.337,163.36 90.65,162.472 89.972,160.8 L62.753,99.045 C62.183,97.694 62.467,96.143 63.461,95.065 L144.192,45.879 C146.778,44.135 150.384,43.188 152.563,45.576" fill="#FFFFFF"></path>
        <path d="M192.104,142.494 L190.094,196.689 C190.024,198.574 188.557,200.069 186.672,200.165 L99.473,204.513 C97.031,204.636 94.991,202.635 95.058,200.192 L96.846,108.525 C96.896,106.917 97.989,105.537 99.558,105.11 C101.173,104.673 102.885,105.297 103.843,106.736 L146.866,175.511 C147.729,176.812 149.462,177.33 150.904,176.698 C152.345,176.063 153.169,174.494 152.918,172.939 L144.478,123.049 C144.298,121.994 144.627,120.916 145.349,120.126 C146.072,119.335 147.095,118.934 148.152,119.029 L190.098,123.341 C192.037,123.517 193.427,125.25 193.188,127.18 L192.104,142.494" fill="#FFFFFF"></path>
    </g>
</svg>